<?xml version="1.0" standalone="no"?>
<!DOCTYPE svg PUBLIC "-//W3C//DTD SVG 20010904//EN"
 "http://www.w3.org/TR/2001/REC-SVG-20010904/DTD/svg10.dtd">
<svg version="1.0" xmlns="http://www.w3.org/2000/svg"
 width="308.000000pt" height="308.000000pt" viewBox="0 0 308.000000 308.000000"
 preserveAspectRatio="xMidYMid meet">

<g transform="translate(0.000000,308.000000) scale(0.100000,-0.100000)"
fill="#000000" stroke="none">
<path d="M1 2323 c1 -463 5 -733 10 -693 5 36 13 102 19 147 37 283 170 569
369 788 240 265 538 430 885 490 134 23 393 20 536 -6 63 -11 116 -22 118 -24
2 -2 10 -37 17 -77 25 -147 109 -313 226 -447 132 -151 268 -250 427 -311 216
-83 376 -250 441 -464 30 -96 30 -367 1 -505 -69 -327 -206 -573 -444 -798
-204 -193 -451 -320 -748 -385 -137 -29 -452 -32 -595 -5 -554 104 -1013 512
-1183 1052 -28 90 -39 148 -68 370 -6 47 -10 -180 -11 -692 l-1 -763 1540 0
1540 0 0 1540 0 1540 -1540 0 -1540 0 1 -757z"/>
<path d="M1730 2255 c0 -399 -2 -725 -4 -725 -2 0 -23 11 -47 24 -120 67 -354
94 -539 62 -277 -48 -558 -189 -690 -346 l-42 -50 105 0 105 0 25 33 c38 50
161 140 252 185 215 107 440 134 608 75 74 -26 149 -102 166 -167 7 -27 9 -67
6 -88 l-7 -38 96 0 96 0 2 618 c3 545 5 610 17 557 38 -170 69 -229 177 -337
82 -82 158 -121 334 -173 138 -41 224 -80 285 -130 46 -38 113 -144 145 -233
26 -70 45 -79 79 -36 70 89 1 355 -130 498 -57 62 -115 101 -323 215 -189 104
-250 146 -319 220 -70 76 -89 109 -167 286 -108 244 -106 241 -150 259 -22 9
-49 16 -60 16 -20 0 -20 -9 -20 -725z"/>
<path d="M1480 2840 c0 -93 1 -100 20 -100 16 0 20 7 20 35 0 32 2 35 30 35
38 0 70 31 70 69 0 40 -32 61 -92 61 l-48 0 0 -100z m94 44 c6 -16 -21 -47
-38 -41 -13 4 -20 32 -12 52 6 16 42 9 50 -11z"/>
<path d="M1268 2890 c-28 -28 -30 -36 -25 -78 6 -58 41 -92 93 -92 76 0 121
96 77 160 -24 35 -33 40 -76 40 -30 0 -46 -7 -69 -30z m113 -47 c10 -28 3 -63
-15 -75 -21 -14 -55 -8 -66 11 -12 23 -13 71 -2 87 21 32 67 19 83 -23z"/>
<path d="M1152 2883 c-6 -2 -15 -23 -18 -44 l-7 -40 -26 25 c-27 26 -51 33
-65 19 -3 -4 10 -24 30 -44 l36 -37 -12 -52 c-7 -28 -11 -53 -9 -54 2 -2 14 0
27 5 16 6 22 16 22 38 0 40 13 45 40 16 17 -18 30 -23 44 -19 31 10 31 9 -13
50 -26 23 -40 43 -37 53 12 41 17 91 10 90 -5 0 -15 -3 -22 -6z"/>
<path d="M800 2784 c-8 -20 -16 -25 -37 -22 -32 4 -42 -18 -12 -27 27 -9 73
23 77 54 5 30 -16 26 -28 -5z"/>
<path d="M857 2759 c-14 -8 -17 -24 -17 -84 0 -41 -3 -75 -7 -75 -5 0 -21 23
-36 50 -29 52 -36 57 -54 39 -8 -8 3 -34 39 -94 45 -76 52 -83 69 -72 16 10
19 24 19 84 0 39 4 74 8 77 4 2 20 -18 35 -45 27 -46 49 -61 62 -40 5 9 -78
155 -93 165 -4 2 -15 0 -25 -5z"/>
<path d="M595 2570 c-62 -64 -11 -170 80 -170 30 0 83 47 86 75 4 49 -3 69
-32 96 -43 41 -95 40 -134 -1z m102 -32 c55 -51 5 -125 -55 -81 -46 34 -39
103 11 103 11 0 31 -10 44 -22z"/>
<path d="M483 2461 c-10 -16 -9 -28 2 -62 18 -51 13 -60 -18 -31 -28 26 -43
28 -51 6 -4 -9 -5 -18 -4 -18 2 -1 35 -27 75 -59 63 -50 73 -55 84 -40 12 13
9 20 -21 45 l-35 29 52 -2 c49 -3 83 11 83 32 0 5 -26 9 -58 9 l-59 0 -13 55
c-7 30 -16 55 -19 55 -3 0 -12 -9 -18 -19z"/>
<path d="M347 2281 c-45 -76 4 -161 93 -161 50 0 109 76 80 104 -10 8 -14 8
-18 -3 -11 -33 -52 -62 -75 -55 -56 17 -76 74 -37 109 11 10 17 22 14 26 -11
18 -40 8 -57 -20z"/>
<path d="M255 2121 c-5 -16 1 -33 19 -61 14 -22 26 -42 26 -45 0 -3 -17 2 -37
10 -29 12 -38 13 -45 3 -12 -20 -4 -32 30 -42 44 -12 40 -22 -14 -32 -36 -7
-49 -15 -55 -33 -8 -21 -7 -23 13 -17 13 3 39 9 58 12 33 5 37 3 63 -40 32
-51 42 -56 50 -25 4 14 -4 35 -24 62 -16 22 -28 42 -26 44 2 2 20 -4 40 -12
34 -14 37 -14 46 4 9 16 5 21 -32 36 -23 10 -37 19 -32 21 6 2 29 8 52 14 25
6 47 19 54 31 15 29 9 31 -47 14 -63 -19 -71 -19 -78 3 -3 9 -17 30 -30 47
-23 29 -23 29 -31 6z"/>
<path d="M155 1829 c-4 -11 -5 -22 -3 -23 1 -1 21 -13 43 -26 l39 -24 -43 -11
c-39 -9 -71 -38 -57 -52 3 -3 35 2 72 11 70 18 97 11 92 -22 -2 -9 5 -18 15
-20 14 -3 17 3 17 31 0 38 -15 53 -122 125 -45 31 -47 31 -53 11z"/>
<path d="M122 1588 c3 -29 8 -33 68 -54 l65 -22 -35 -15 c-19 -8 -48 -19 -65
-24 -24 -8 -31 -16 -33 -41 l-3 -32 100 0 c94 0 101 1 101 20 0 18 -7 20 -67
21 l-68 1 68 25 c93 35 91 55 -5 85 l-73 23 73 3 c64 3 72 5 72 22 0 19 -7 20
-101 20 l-100 0 3 -32z"/>
<path d="M1224 1489 c-86 -14 -214 -59 -304 -105 -88 -45 -221 -140 -228 -161
-3 -10 94 -13 461 -13 l465 0 11 31 c26 76 -1 160 -67 204 -74 49 -207 66
-338 44z"/>
<path d="M170 1145 l0 -25 1375 0 1375 0 0 25 0 25 -1375 0 -1375 0 0 -25z"/>
<path d="M334 1058 c-4 -7 -7 -40 -7 -75 1 -121 71 -215 207 -279 205 -96 535
-83 814 32 166 69 340 189 411 286 l32 43 -96 3 -95 3 -66 -66 c-181 -181
-450 -287 -692 -272 -210 12 -332 118 -320 277 l4 60 -92 0 c-62 0 -95 -4
-100 -12z"/>
<path d="M560 1019 c-27 -100 31 -191 145 -225 153 -46 402 0 601 111 57 32
204 140 204 151 0 2 -211 4 -470 4 l-469 0 -11 -41z"/>
<path d="M2531 932 c-5 -10 -6 -24 -1 -32 8 -14 50 -170 50 -185 0 -4 -29 16
-65 44 -35 28 -68 51 -72 51 -9 0 -37 -40 -31 -44 2 -2 25 -18 52 -36 27 -18
73 -53 103 -77 49 -40 57 -43 70 -30 11 11 12 20 5 34 -10 17 -52 172 -52 188
0 4 29 -16 64 -44 35 -28 68 -51 73 -51 4 0 14 9 20 20 12 17 4 26 -84 92
-127 95 -120 92 -132 70z"/>
<path d="M2325 645 c-27 -10 -41 -11 -46 -4 -4 7 -13 7 -28 -2 -23 -15 -26
-25 -11 -34 6 -4 2 -17 -9 -33 -33 -45 -31 -96 4 -135 28 -30 74 -36 120 -15
21 9 27 9 38 -6 12 -16 14 -16 31 3 15 17 16 23 6 36 -10 12 -8 19 9 41 40 50
18 133 -40 153 -18 6 -32 11 -33 11 -1 -1 -19 -7 -41 -15z m74 -61 c23 -29 26
-51 11 -74 -9 -12 -18 -6 -55 34 -24 27 -42 53 -39 58 12 19 63 8 83 -18z
m-54 -124 c-11 -17 -48 -11 -72 12 -25 23 -29 48 -12 79 9 19 13 16 50 -30 22
-28 38 -55 34 -61z"/>
<path d="M2068 509 c-10 -5 -18 -20 -18 -32 0 -23 -42 -163 -52 -172 -3 -3
-17 28 -33 70 -19 52 -32 75 -44 75 -39 -1 -38 -15 10 -135 56 -138 73 -151
95 -70 7 28 22 77 32 109 l18 60 31 -80 c28 -68 35 -79 54 -76 13 1 24 4 27 6
2 2 -17 56 -42 120 -25 63 -46 120 -46 126 0 13 -10 12 -32 -1z"/>
<path d="M1724 398 c-5 -7 -18 -53 -30 -103 -25 -101 -20 -103 -67 31 -22 63
-23 64 -58 64 -33 0 -37 -3 -43 -31 -3 -17 -6 -78 -6 -135 l0 -104 26 0 26 0
-4 104 c-2 58 -3 104 -2 103 1 -1 20 -45 43 -97 34 -80 44 -95 63 -95 20 0 25
11 49 105 30 115 30 115 47 -30 7 -62 8 -65 35 -65 15 0 28 5 28 10 1 6 -7 65
-17 133 l-18 122 -33 0 c-17 0 -35 -6 -39 -12z"/>
</g>
</svg>
